<?xml version="1.0" standalone="no"?>
<!DOCTYPE svg PUBLIC "-//W3C//DTD SVG 20010904//EN"
 "http://www.w3.org/TR/2001/REC-SVG-20010904/DTD/svg10.dtd">
<svg version="1.0" xmlns="http://www.w3.org/2000/svg"
 width="2945.000000pt" height="888.000000pt" viewBox="0 0 2945.000000 888.000000"
 preserveAspectRatio="xMidYMid meet">

<g transform="translate(0.000000,888.000000) scale(0.100000,-0.100000)"
fill="#000000" stroke="none">
<path d="M2193 7276 c-235 -57 -403 -270 -403 -511 0 -231 141 -425 363 -500
349 -117 715 171 684 538 -12 134 -63 243 -159 339 -121 121 -316 175 -485
134z"/>
<path d="M3019 7211 l-29 -29 0 -415 0 -415 26 -31 26 -31 420 0 420 0 29 29
29 29 0 417 0 417 -29 29 -29 29 -417 0 -417 0 -29 -29z"/>
<path d="M4169 7211 l-29 -29 0 -417 0 -417 29 -29 29 -29 419 0 c313 1 422 4
434 13 38 29 39 46 39 467 l0 412 -29 29 -29 29 -417 0 -417 0 -29 -29z"/>
<path d="M1894 6080 c-54 -22 -54 -21 -54 -471 l0 -416 25 -27 24 -26 425 0
424 0 26 31 27 31 -3 419 -3 418 -23 23 -23 23 -412 2 c-226 1 -422 -2 -433
-7z"/>
<path d="M3044 6080 c-54 -22 -54 -22 -54 -463 0 -417 2 -435 39 -464 23 -18
849 -18 872 0 38 29 39 46 39 466 l0 410 -24 28 -24 28 -414 2 c-227 1 -423
-2 -434 -7z"/>
<path d="M1893 4925 c-17 -7 -36 -22 -42 -34 -15 -28 -15 -835 0 -863 24 -45
54 -48 462 -48 255 0 395 4 416 11 60 21 61 26 61 469 0 443 -1 448 -61 469
-50 17 -795 14 -836 -4z"/>
<path d="M3043 4925 c-17 -7 -36 -22 -42 -34 -15 -28 -15 -835 0 -863 24 -45
54 -48 464 -48 410 0 440 3 464 48 15 29 15 835 0 864 -24 45 -54 48 -466 48
-307 -1 -395 -4 -420 -15z"/>
<path d="M4195 4926 c-54 -23 -55 -32 -55 -467 0 -442 1 -447 61 -468 21 -7
161 -11 416 -11 408 0 438 3 462 48 15 29 15 835 0 864 -24 45 -54 48 -466 48
-298 -1 -395 -4 -418 -14z"/>
<path d="M7580 4925 c-73 -20 -128 -60 -165 -120 -27 -44 -30 -56 -30 -134 0
-144 43 -196 248 -302 131 -69 157 -93 157 -150 0 -106 -148 -127 -346 -50
l-75 29 3 -96 3 -95 55 -20 c46 -17 80 -21 200 -21 144 -1 146 -1 212 32 100
49 147 122 148 231 1 133 -56 202 -247 299 -131 67 -163 96 -163 148 0 91 100
118 256 70 47 -15 87 -26 88 -24 10 14 56 132 56 143 0 8 -32 24 -77 40 -99
34 -241 42 -323 20z"/>
<path d="M12250 4930 c-110 -24 -215 -102 -264 -199 -42 -83 -57 -155 -57
-281 0 -234 68 -368 227 -447 71 -34 83 -37 188 -41 177 -7 271 22 362 113 87
86 127 200 127 364 1 128 -17 213 -62 297 -44 82 -112 141 -198 174 -66 26
-243 36 -323 20z m236 -179 c98 -45 139 -149 132 -333 -5 -129 -20 -173 -75
-230 -44 -45 -85 -60 -163 -60 -82 0 -123 17 -169 68 -56 63 -75 140 -69 280
6 156 43 234 133 275 54 25 156 25 211 0z"/>
<path d="M5890 4450 l0 -480 100 0 100 0 0 480 0 480 -100 0 -100 0 0 -480z"/>
<path d="M6340 4450 l0 -480 92 0 91 0 -6 343 c-3 188 -9 350 -13 360 -3 9 -2
17 2 17 5 0 101 -162 214 -360 l205 -360 133 0 132 0 -2 478 -3 477 -90 0 -90
0 2 -360 c1 -308 -1 -356 -12 -335 -8 14 -101 176 -208 360 l-194 335 -127 3
-126 3 0 -481z"/>
<path d="M8077 4923 c-4 -3 -7 -42 -7 -85 l0 -78 130 0 130 0 0 -395 0 -395
105 0 105 0 0 395 0 395 130 0 131 0 -3 83 -3 82 -356 3 c-195 1 -358 -1 -362
-5z"/>
<path d="M8950 4450 l0 -480 100 0 100 0 0 480 0 480 -100 0 -100 0 0 -480z"/>
<path d="M9300 4845 l0 -85 130 0 130 0 0 -395 0 -395 100 0 100 0 0 395 0
395 130 0 130 0 0 85 0 85 -360 0 -360 0 0 -85z"/>
<path d="M10170 4582 c0 -394 3 -416 70 -501 28 -35 58 -59 107 -83 67 -33 69
-33 208 -33 130 0 144 2 196 26 76 36 133 90 166 157 l28 57 3 363 3 362 -101
0 -100 0 0 -327 c-1 -250 -4 -337 -14 -366 -28 -78 -79 -110 -176 -110 -81 0
-132 22 -162 72 -23 35 -23 42 -26 384 l-3 347 -99 0 -100 0 0 -348z"/>
<path d="M11097 4923 c-4 -3 -7 -42 -7 -85 l0 -78 130 0 130 0 0 -395 0 -395
105 0 105 0 0 395 0 395 130 0 131 0 -3 83 -3 82 -356 3 c-195 1 -358 -1 -362
-5z"/>
<path d="M13390 4450 l0 -480 100 0 100 0 0 190 0 190 160 0 160 0 0 80 0 80
-160 0 -160 0 0 125 0 125 173 2 172 3 0 80 0 80 -272 3 -273 2 0 -480z"/>
<path d="M14127 4923 c-4 -3 -7 -219 -7 -480 l0 -473 280 0 280 0 0 80 0 80
-175 0 -175 0 0 125 0 125 160 0 160 0 0 85 0 85 -160 0 -160 0 0 105 0 105
173 2 172 3 0 80 0 80 -271 3 c-149 1 -273 -1 -277 -5z"/>
<path d="M14880 4451 l0 -481 183 0 c207 0 282 12 377 60 150 76 229 222 230
422 0 239 -110 394 -323 455 -35 10 -119 17 -259 20 l-208 5 0 -481z m447 281
c96 -50 140 -155 131 -312 -7 -111 -39 -186 -101 -231 -48 -35 -86 -46 -194
-55 l-83 -7 0 318 0 317 103 -4 c79 -3 111 -9 144 -26z"/>
<path d="M15870 4450 l0 -480 275 0 275 0 0 80 0 80 -172 2 -173 3 -3 123 -3
122 166 0 165 0 0 85 0 85 -165 0 -165 0 0 105 0 105 175 0 175 0 0 85 0 85
-275 0 -275 0 0 -480z"/>
<path d="M16627 4923 c-4 -3 -7 -219 -7 -480 l0 -473 105 0 105 0 0 185 0 185
53 0 52 0 114 -185 114 -185 108 0 c60 0 109 2 109 5 0 3 -61 97 -135 208 -75
111 -131 203 -126 205 5 2 28 16 50 33 91 65 132 166 112 274 -25 136 -104
201 -274 224 -85 12 -370 15 -380 4z m365 -173 c52 -15 88 -61 88 -113 0 -90
-47 -126 -170 -134 l-80 -6 0 132 0 131 63 0 c34 0 79 -5 99 -10z"/>
<path d="M17725 4918 c-3 -7 -70 -200 -150 -428 -80 -228 -155 -439 -165 -467
l-20 -53 110 0 109 0 36 115 36 115 173 0 174 0 26 -87 c15 -49 31 -99 35
-113 7 -24 10 -25 114 -28 59 -1 107 1 107 6 0 5 -74 219 -165 477 -91 257
-165 470 -165 472 0 1 -56 3 -125 3 -91 0 -127 -3 -130 -12z m196 -358 c32
-102 56 -186 55 -188 -2 -1 -57 -1 -124 0 l-120 3 38 125 c21 69 48 159 61
200 12 41 24 68 27 60 3 -8 31 -98 63 -200z"/>
<path d="M18440 4450 l0 -480 295 0 295 0 0 80 0 80 -192 2 -193 3 -3 398 -2
397 -100 0 -100 0 0 -480z"/>
<path d="M19832 3883 c3 -924 5 -1048 18 -1048 13 0 15 123 15 1045 0 988 -1
1045 -18 1048 -16 3 -17 -50 -15 -1045z"/>
<path d="M21134 4469 c-66 -15 -145 -69 -181 -123 -45 -66 -63 -134 -63 -237
0 -162 54 -270 164 -326 43 -23 67 -27 151 -31 65 -2 116 2 145 10 40 12 45
17 48 47 l3 33 -58 -9 c-32 -4 -90 -8 -129 -7 -156 2 -234 97 -234 283 0 141
42 226 135 271 64 31 174 29 257 -5 12 -5 21 2 33 25 9 18 13 36 8 41 -4 4
-35 15 -68 23 -65 17 -147 19 -211 5z"/>
<path d="M21675 4294 c-41 -11 -115 -36 -115 -39 0 -10 24 -55 29 -55 3 0 28
7 55 15 58 18 129 19 158 4 41 -22 67 -139 31 -139 -10 0 -60 -5 -112 -10
-157 -17 -227 -74 -219 -178 8 -93 66 -142 170 -142 70 0 104 12 145 52 33 32
37 31 45 -17 2 -15 12 -21 36 -23 l34 -3 -4 220 c-3 240 -5 245 -70 294 -26
20 -138 32 -183 21z m175 -306 c0 -90 -44 -150 -121 -167 -55 -12 -114 1 -129
29 -11 21 -13 80 -4 105 13 34 101 61 207 64 47 1 47 1 47 -31z"/>
<path d="M22260 4284 c-19 -8 -47 -27 -62 -41 -27 -26 -28 -26 -28 -6 0 40
-11 53 -46 53 l-34 0 0 -265 0 -265 45 0 45 0 0 180 c0 191 6 227 49 264 15
13 41 21 81 24 55 4 61 2 90 -26 l30 -30 0 -206 0 -206 45 0 45 0 0 189 c0
179 1 190 23 222 29 43 60 59 120 59 40 0 53 -5 78 -29 l29 -29 0 -206 0 -206
46 0 46 0 -4 208 c-3 184 -6 211 -24 247 -52 102 -238 114 -311 21 l-21 -27
-21 30 c-40 55 -147 77 -221 45z"/>
<path d="M23196 4290 c-16 -5 -44 -23 -61 -40 -27 -27 -33 -29 -39 -15 -3 9
-6 25 -6 36 0 15 -7 19 -35 19 l-35 0 0 -385 0 -385 40 0 40 0 0 152 0 151 23
-21 c71 -67 218 -69 290 -4 11 9 31 40 45 67 24 45 27 61 27 160 0 101 -3 114
-28 162 -37 72 -87 104 -169 109 -35 2 -76 -1 -92 -6z m159 -102 c74 -81 71
-254 -5 -330 -35 -36 -41 -38 -100 -38 -57 0 -65 3 -95 33 -40 40 -60 122 -52
214 11 119 59 167 161 160 52 -3 62 -7 91 -39z"/>
<path d="M24321 4288 c-72 -20 -111 -66 -111 -130 0 -57 33 -96 108 -129 140
-63 174 -82 184 -104 15 -32 3 -72 -28 -91 -32 -22 -143 -22 -204 0 -61 21
-62 21 -58 -21 3 -34 7 -39 43 -49 50 -16 168 -17 217 -4 120 34 156 175 63
246 -19 14 -69 39 -112 56 -102 40 -133 62 -133 96 0 33 8 45 37 61 30 15 130
13 178 -4 22 -8 41 -15 41 -15 1 0 7 14 14 31 16 37 9 43 -63 59 -58 12 -130
12 -176 -2z"/>
<path d="M23630 4083 c0 -247 8 -276 82 -312 79 -38 213 -21 257 32 19 24 29
21 33 -10 2 -23 8 -29 36 -31 l32 -3 0 265 0 266 -40 0 -40 0 0 -177 c0 -153
-3 -184 -19 -220 -24 -52 -63 -73 -136 -73 -116 0 -125 19 -125 275 l0 195
-40 0 -40 0 0 -207z"/>
<path d="M1866 3754 l-26 -27 0 -419 0 -420 30 -29 29 -30 420 3 420 3 23 23
23 23 3 418 3 419 -27 31 -26 31 -423 0 -422 0 -27 -26z"/>
<path d="M3029 3767 c-38 -29 -39 -46 -39 -467 l0 -412 30 -29 29 -30 421 3
422 3 24 28 24 28 0 410 c0 420 -1 437 -39 466 -23 18 -849 18 -872 0z"/>
<path d="M6480 2960 l0 -370 35 0 35 0 0 370 0 370 -35 0 -35 0 0 -370z"/>
<path d="M23810 2955 l0 -375 40 0 40 0 0 178 c0 151 3 183 19 218 23 50 68
74 140 74 42 0 56 -5 83 -29 l33 -29 3 -206 3 -206 40 0 39 0 0 203 c0 190 -1
205 -22 247 -28 54 -69 80 -140 87 -67 7 -129 -10 -171 -46 l-32 -29 3 144 3
144 -40 0 -41 0 0 -375z"/>
<path d="M24970 2955 l0 -375 40 0 40 0 0 375 0 375 -40 0 -40 0 0 -375z"/>
<path d="M27730 3190 l0 -140 -43 30 c-79 57 -202 50 -268 -14 -46 -45 -70
-106 -76 -195 -10 -136 37 -244 121 -282 76 -34 203 -17 245 34 20 25 31 21
31 -13 0 -28 3 -30 35 -30 l35 0 0 375 0 375 -40 0 -40 0 0 -140z m-69 -163
c50 -33 70 -99 66 -207 -6 -136 -43 -180 -147 -180 -107 0 -153 61 -153 200 0
96 15 141 59 180 29 25 43 30 88 30 39 0 62 -6 87 -23z"/>
<path d="M5921 2972 c-69 -174 -131 -332 -138 -350 l-14 -33 42 3 43 3 41 105
41 105 141 3 141 3 43 -111 44 -110 42 0 42 0 -35 88 c-19 48 -80 205 -137
349 l-102 263 -35 0 -35 0 -124 -318z m215 66 c30 -79 54 -146 54 -150 0 -5
-49 -8 -110 -8 -60 0 -110 3 -110 7 0 3 23 67 50 140 28 73 50 141 50 150 0
31 13 3 66 -139z"/>
<path d="M20920 2935 l0 -355 40 0 41 0 -3 309 c-2 170 -1 307 1 305 3 -3 57
-141 121 -307 l115 -302 36 -3 35 -3 120 310 119 310 3 -309 2 -310 40 0 40 0
0 355 0 355 -63 0 -62 0 -114 -295 c-63 -162 -115 -294 -117 -292 -1 1 -53
134 -114 295 l-113 292 -63 0 -64 0 0 -355z"/>
<path d="M25500 2936 l0 -356 139 0 c111 0 152 4 203 20 82 25 147 81 185 158
26 53 28 66 28 177 0 146 -19 200 -96 269 -74 66 -117 78 -301 84 l-158 4 0
-356z m343 251 c88 -40 129 -116 130 -242 2 -198 -83 -285 -290 -293 l-103 -4
0 287 0 288 104 -5 c82 -5 116 -11 159 -31z"/>
<path d="M6810 3102 c-57 -18 -70 -35 -48 -65 13 -17 16 -17 53 -1 21 9 65 17
97 17 76 2 108 -26 116 -101 l4 -49 -93 -6 c-112 -7 -176 -27 -215 -68 -23
-25 -29 -39 -32 -92 -4 -74 16 -114 71 -140 74 -35 216 -10 250 44 15 24 27
24 27 0 0 -37 12 -51 42 -51 l29 0 -3 213 c-3 182 -6 217 -21 245 -37 68 -158
91 -277 54z m217 -318 c-7 -69 -35 -108 -92 -130 -84 -32 -165 4 -165 73 0 46
14 69 53 89 30 16 182 35 201 26 5 -3 6 -29 3 -58z"/>
<path d="M7344 3102 c-56 -27 -87 -73 -92 -138 -5 -63 24 -133 63 -154 l25
-14 -30 -31 c-35 -36 -40 -81 -11 -116 18 -23 18 -23 -18 -41 -96 -48 -95
-179 2 -230 35 -19 58 -22 142 -23 117 0 172 14 220 56 62 55 69 156 15 210
-35 36 -87 49 -188 49 -94 0 -122 10 -122 44 0 40 39 66 101 66 64 0 132 30
162 72 27 36 33 114 14 160 -15 35 -14 36 6 42 12 3 32 6 45 6 17 0 22 6 22
25 0 24 -3 25 -62 25 -35 0 -106 3 -158 6 -81 4 -101 2 -136 -14z m187 -71
c24 -25 29 -37 29 -81 0 -64 -12 -88 -55 -106 -44 -18 -79 -18 -120 1 -39 19
-55 51 -55 111 0 37 6 51 29 75 26 25 37 29 86 29 49 0 60 -4 86 -29z m68
-455 c42 -38 21 -110 -42 -143 -41 -22 -192 -25 -230 -4 -62 33 -51 132 18
162 11 5 68 8 127 6 88 -2 110 -6 127 -21z"/>
<path d="M7912 3094 c-86 -43 -122 -113 -123 -240 -1 -92 16 -145 63 -199 52
-59 107 -79 199 -73 94 7 142 39 184 122 26 52 29 70 29 147 0 77 -3 94 -30
145 -41 82 -100 118 -198 122 -61 3 -78 0 -124 -24z m218 -79 c39 -37 53 -85
53 -172 -1 -100 -29 -158 -91 -185 -86 -38 -188 6 -212 90 -13 47 -13 156 0
203 28 100 173 138 250 64z"/>
<path d="M8492 3101 c-29 -10 -55 -20 -57 -23 -3 -3 -1 -18 5 -33 8 -20 15
-25 28 -20 153 60 242 29 242 -85 l0 -40 -52 0 c-185 0 -288 -60 -288 -167 0
-100 59 -153 170 -153 65 0 107 16 151 57 l27 24 6 -35 c6 -32 10 -36 36 -36
l30 0 0 203 c0 178 -3 207 -20 245 -15 33 -29 47 -62 62 -55 25 -146 25 -216
1z m218 -296 c0 -102 -54 -159 -153 -160 -52 0 -61 3 -83 28 -27 32 -30 66
-10 106 20 37 57 52 151 61 44 4 83 8 88 9 4 0 7 -19 7 -44z"/>
<path d="M9017 3106 c-51 -19 -75 -42 -88 -87 -25 -82 13 -130 151 -188 136
-58 169 -103 116 -156 -42 -42 -159 -42 -259 0 -16 7 -18 3 -15 -30 3 -34 7
-40 38 -51 43 -16 172 -17 223 -3 21 5 52 23 69 38 27 24 32 36 36 87 3 50 0
63 -18 87 -23 28 -105 75 -173 96 -121 40 -131 136 -17 154 32 6 54 3 146 -18
26 -6 32 -3 42 20 7 14 12 28 12 30 0 2 -23 11 -52 20 -63 18 -160 19 -211 1z"/>
<path d="M21897 3101 c-32 -11 -61 -21 -63 -24 -8 -8 18 -57 30 -57 6 0 29 7
51 15 48 17 128 19 157 4 24 -13 48 -67 48 -108 0 -29 -1 -29 -67 -36 -126
-11 -150 -16 -194 -38 -63 -32 -84 -66 -84 -137 0 -98 58 -150 167 -150 70 0
104 12 145 52 33 32 37 31 45 -17 2 -15 12 -21 36 -23 l33 -3 -3 220 c-3 240
-4 245 -70 294 -39 29 -155 33 -231 8z m223 -293 c0 -90 -44 -150 -121 -167
-55 -12 -114 1 -129 29 -11 21 -13 80 -4 105 13 34 101 61 207 64 47 1 47 1
47 -31z"/>
<path d="M22545 3105 c-37 -17 -54 -31 -83 -69 l-22 -29 0 29 c0 56 -10 74
-41 74 l-29 0 0 -265 0 -265 40 0 40 0 0 173 c0 159 2 175 23 212 29 52 96 89
148 81 40 -6 49 3 49 50 0 22 -4 24 -47 24 -27 -1 -61 -7 -78 -15z"/>
<path d="M22884 3101 c-53 -24 -108 -90 -125 -149 -19 -65 -17 -179 5 -235 22
-58 91 -122 148 -137 52 -15 192 -8 231 10 22 11 27 20 27 47 0 31 -2 34 -22
27 -100 -32 -192 -33 -238 -1 -48 32 -72 69 -77 121 l-6 46 182 0 181 0 0 63
c-1 101 -47 176 -132 211 -50 21 -124 20 -174 -3z m182 -85 c25 -28 49 -100
39 -116 -10 -16 -275 -13 -275 3 0 29 21 82 42 105 33 35 56 42 117 38 44 -2
59 -8 77 -30z"/>
<path d="M23459 3106 c-61 -21 -96 -54 -126 -114 -24 -50 -28 -69 -28 -147 0
-50 6 -107 14 -128 18 -52 67 -106 116 -128 45 -21 148 -25 208 -8 34 9 37 13
37 46 0 32 -2 35 -22 28 -13 -3 -54 -9 -93 -12 -62 -4 -74 -2 -105 19 -53 35
-70 79 -70 175 0 170 68 234 215 203 31 -6 58 -10 61 -8 2 3 7 18 10 35 6 29
4 31 -39 42 -59 14 -133 13 -178 -3z"/>
<path d="M24530 3109 c-57 -16 -90 -31 -90 -40 0 -4 5 -19 11 -32 l11 -24 49
18 c82 32 170 22 196 -20 6 -10 14 -38 18 -63 l7 -45 -47 -7 c-27 -3 -67 -6
-90 -6 -95 0 -196 -56 -211 -117 -4 -13 -4 -46 -2 -74 8 -84 69 -129 172 -129
67 0 93 9 139 50 l36 31 7 -35 c5 -31 10 -36 35 -36 l29 0 0 218 c0 243 -5
263 -72 298 -39 20 -149 28 -198 13z m190 -321 c0 -94 -56 -150 -151 -151 -59
-1 -96 22 -104 66 -17 89 48 131 213 136 l42 1 0 -52z"/>
<path d="M26313 3095 c-169 -78 -180 -389 -18 -490 41 -25 61 -31 126 -34 51
-2 96 2 133 13 54 16 56 18 56 51 0 40 1 40 -64 20 -27 -8 -74 -15 -105 -15
-98 0 -157 50 -171 147 l-7 43 184 0 183 0 0 51 c0 185 -155 290 -317 214z
m167 -60 c36 -19 60 -62 60 -110 l0 -35 -135 0 c-132 0 -135 0 -135 22 0 35
37 102 67 120 35 22 104 23 143 3z"/>
<path d="M26910 3111 c-112 -34 -170 -125 -170 -265 0 -170 94 -276 245 -276
125 0 209 71 236 199 24 114 -7 228 -79 293 -58 52 -154 72 -232 49z m165 -85
c43 -28 66 -94 66 -186 0 -58 -5 -89 -19 -117 -33 -63 -55 -77 -133 -81 -69
-4 -69 -4 -108 34 -50 51 -69 128 -53 222 12 73 30 105 75 133 40 25 130 22
172 -5z"/>
<path d="M28109 3107 c-62 -23 -97 -55 -126 -115 -24 -49 -28 -69 -28 -142 0
-101 15 -149 64 -203 47 -52 102 -77 171 -77 83 0 127 16 176 65 56 57 78 127
72 235 -9 150 -90 239 -225 246 -42 3 -82 -1 -104 -9z m168 -77 c45 -27 63
-59 76 -133 16 -94 -3 -169 -54 -221 -39 -38 -39 -38 -108 -34 -79 4 -103 19
-132 83 -13 28 -19 64 -19 120 0 97 23 155 72 185 44 26 122 27 165 0z"/>
<path d="M28752 3099 c-24 -12 -53 -35 -65 -51 -19 -26 -22 -27 -29 -11 -3 10
-7 30 -7 46 -1 24 -5 27 -36 27 l-35 0 0 -265 0 -265 40 0 40 0 0 140 c0 168
12 230 52 276 33 37 93 59 137 49 26 -5 29 -3 35 26 3 17 6 35 6 40 0 18 -95
9 -138 -12z"/>
<path d="M29119 3106 c-58 -21 -93 -51 -124 -108 -27 -48 -30 -62 -30 -149 0
-87 3 -101 30 -154 39 -77 99 -117 186 -123 158 -12 254 76 266 243 4 51 1 88
-12 130 -39 136 -182 209 -316 161z m168 -76 c50 -30 76 -90 76 -180 1 -94
-15 -141 -59 -180 -31 -27 -42 -30 -99 -30 -57 0 -68 3 -99 30 -44 39 -60 86
-59 181 0 91 21 143 72 176 44 30 122 31 168 3z"/>
</g>
</svg>
